# xmcd
#
# Track frame offsets:
#	150
#	30397
#	50231
#	75701
#	90154
#	112072
#	127777
#	156682
#	179925
#	199957
#	216791
#	238462
#	255472
#	268747
#
# Disc length: 3895 seconds
#
# Revision: 1
# Processed by: cddbd v1.5.2PL0 Copyright (c) Steve Scherf et al.
# Submitted via: audiograbber 1.83.01
#
DISCID=d10f350e
DTITLE=Keltika - Volume 46
DYEAR=1900
DGENRE=celtic
TTITLE0=Luar Na Lubre - O Son Do Ar
TTITLE1=Flook - Sligo Reel
TTITLE2=Claire Mann - The Green Laurels
TTITLE3=Lisa Lynne - Still and Will
TTITLE4=Rory Campbell - Malcom Stitt - Hunt
TTITLE5=Elfic Circle - Yanniy Skolan
TTITLE6=Màireàd Nesbitt - An Raibh Tu Ag An Gcarraig?
TTITLE7=Siansa - The Mist Covered Mountain - Home By Bearna
TTITLE8=Henri Seroka - Loch Ness
TTITLE9=Epinfrai - Alessandrina In La
TTITLE10=Greenwood Tree - Willy's Joy - Springboard Jig - Vorpal Jib
TTITLE11=Micheal McGoldrick - Goodbye Grant
TTITLE12=Moira Nelson - Moonfyre
TTITLE13=Rònàn ò Snodaigh - Quieter Moments
EXTD=
EXTT0=
EXTT1=
EXTT2=
EXTT3=
EXTT4=
EXTT5=
EXTT6=
EXTT7=
EXTT8=
EXTT9=
EXTT10=
EXTT11=
EXTT12=
EXTT13=
PLAYORDER=
